<?xml version="1.0" encoding="utf-8"?>
<!-- Generator: Adobe Illustrator 19.0.0, SVG Export Plug-In . SVG Version: 6.00 Build 0)  -->
<svg version="1.1" xmlns="http://www.w3.org/2000/svg" xmlns:xlink="http://www.w3.org/1999/xlink" x="0px" y="0px"
	 viewBox="0 0 1353.6 938.9" style="enable-background:new 0 0 1353.6 938.9;" xml:space="preserve">
<style type="text/css">
	.st0{clip-path:url(#XMLID_33_);fill:#ABA4A6;}
	.st1{clip-path:url(#XMLID_33_);}
	.st2{clip-path:url(#XMLID_34_);}
	.st3{clip-path:url(#XMLID_35_);fill:#ABA4A6;}
	.st4{clip-path:url(#XMLID_36_);fill:#ABA4A6;}
	.st5{clip-path:url(#XMLID_37_);fill:#ABA4A6;}
	.st6{clip-path:url(#XMLID_38_);fill:#ABA4A6;}
	.st7{clip-path:url(#XMLID_39_);fill:#ABA4A6;}
	.st8{clip-path:url(#XMLID_34_);fill:#ABA4A6;}
	.st9{opacity:0.89;fill:#FFFFFF;}
</style>
<g id="Layer_1">
	<g id="XMLID_18_">
		<defs>
			<rect id="XMLID_17_" y="-0.1" width="1353.6" height="939"/>
		</defs>
		<clipPath id="XMLID_33_">
			<use xlink:href="#XMLID_17_"  style="overflow:visible;"/>
		</clipPath>
		<polygon id="XMLID_917_" class="st0" points="1613.1,959.1 1243.5,589.4 1243.5,586.6 1615.9,959.1 		"/>
		<polygon id="XMLID_918_" class="st0" points="1641.7,959.1 1272.1,589.4 1272.1,586.6 1644.6,959.1 		"/>
		<polygon id="XMLID_919_" class="st0" points="1669.8,959.1 1300.2,589.4 1300.2,586.6 1672.6,959.1 		"/>
		<polygon id="XMLID_920_" class="st0" points="1697.6,957.3 1327.9,587.7 1327.9,584.9 1700.4,957.3 		"/>
		<g id="XMLID_2_" class="st1">
			<defs>
				<rect id="XMLID_1_" y="-0.1" width="1353.6" height="939.3"/>
			</defs>
			<clipPath id="XMLID_34_">
				<use xlink:href="#XMLID_1_"  style="overflow:visible;"/>
			</clipPath>
			<g id="XMLID_1657_" class="st2">
				<defs>
					<rect id="XMLID_1658_" y="0.9" width="300" height="600"/>
				</defs>
				<clipPath id="XMLID_35_">
					<use xlink:href="#XMLID_1658_"  style="overflow:visible;"/>
				</clipPath>
				<polygon id="XMLID_1743_" class="st3" points="684.3,600.9 0,-83.4 0,-86.2 687.2,600.9 				"/>
				<polygon id="XMLID_1742_" class="st3" points="627.2,600.9 0,-26.3 0,-29.1 630,600.9 				"/>
				<polygon id="XMLID_1741_" class="st3" points="570,600.9 0,30.9 0,28 572.9,600.9 				"/>
				<polygon id="XMLID_1740_" class="st3" points="512.9,600.9 0,88 0,85.2 515.7,600.9 				"/>
				<polygon id="XMLID_1739_" class="st3" points="455.8,600.9 0,145.1 0,142.3 458.6,600.9 				"/>
				<polygon id="XMLID_1738_" class="st3" points="398.6,600.9 0,202.3 0,199.5 401.5,600.9 				"/>
				<polygon id="XMLID_1737_" class="st3" points="341.5,600.9 0,259.4 0,256.6 344.3,600.9 				"/>
				<polygon id="XMLID_1736_" class="st3" points="284.3,600.9 0,316.6 0,313.7 287.2,600.9 				"/>
				<polygon id="XMLID_1735_" class="st3" points="227.2,600.9 0,373.7 0,370.9 230,600.9 				"/>
				<polygon id="XMLID_1734_" class="st3" points="170.1,600.9 0,430.8 0,428 172.9,600.9 				"/>
				<polygon id="XMLID_1733_" class="st3" points="112.9,600.9 0,488 0,485.2 115.8,600.9 				"/>
				<polygon id="XMLID_1732_" class="st3" points="55.8,600.9 0,545.1 0,542.3 58.6,600.9 				"/>
				<polygon id="XMLID_1731_" class="st3" points="0,600.9 0,599.4 1.5,600.9 				"/>
				<polygon id="XMLID_1730_" class="st3" points="741.5,600.9 0,-140.6 0,-143.4 744.3,600.9 				"/>
				<polygon id="XMLID_1729_" class="st3" points="798.6,600.9 0,-197.7 0,-200.5 801.4,600.9 				"/>
				<polygon id="XMLID_1728_" class="st3" points="855.7,600.9 0,-254.8 0,-257.7 858.6,600.9 				"/>
				<polygon id="XMLID_1727_" class="st3" points="912.9,600.9 0,-312 0,-314.8 915.7,600.9 				"/>
				<polygon id="XMLID_1726_" class="st3" points="970,600.9 0,-369.1 0,-371.9 972.9,600.9 				"/>
				<polygon id="XMLID_1725_" class="st3" points="1027.2,600.9 0,-426.3 0,-429.1 1030,600.9 				"/>
				<polygon id="XMLID_1724_" class="st3" points="1084.3,600.9 0,-483.4 0,-486.2 1087.1,600.9 				"/>
				<polygon id="XMLID_1723_" class="st3" points="1141.4,600.9 0,-540.5 0,-543.4 1144.3,600.9 				"/>
				<polygon id="XMLID_1722_" class="st3" points="0,-599.1 1.4,-599.1 1200,599.5 1200,600.9 1198.6,600.9 0,-597.7 				"/>
				<polygon id="XMLID_1721_" class="st3" points="58.6,-599.1 1200,542.4 1200,545.2 55.7,-599.1 				"/>
				<polygon id="XMLID_1720_" class="st3" points="115.7,-599.1 1200,485.2 1200,488 112.9,-599.1 				"/>
				<polygon id="XMLID_1719_" class="st3" points="172.8,-599.1 1200,428.1 1200,430.9 170,-599.1 				"/>
				<polygon id="XMLID_1718_" class="st3" points="230,-599.1 1200,370.9 1200,373.8 227.1,-599.1 				"/>
				<polygon id="XMLID_1717_" class="st3" points="287.1,-599.1 1200,313.8 1200,316.6 284.3,-599.1 				"/>
				<polygon id="XMLID_1716_" class="st3" points="344.3,-599.1 1200,256.7 1200,259.5 341.4,-599.1 				"/>
				<polygon id="XMLID_1715_" class="st3" points="401.4,-599.1 1200,199.5 1200,202.3 398.6,-599.1 				"/>
				<polygon id="XMLID_1714_" class="st3" points="458.5,-599.1 1200,142.4 1200,145.2 455.7,-599.1 				"/>
				<polygon id="XMLID_1713_" class="st3" points="515.7,-599.1 1200,85.2 1200,88.1 512.8,-599.1 				"/>
				<polygon id="XMLID_1712_" class="st3" points="572.8,-599.1 1200,28.1 1200,30.9 570,-599.1 				"/>
				<polygon id="XMLID_1711_" class="st3" points="630,-599.1 1200,-29 1200,-26.2 627.1,-599.1 				"/>
				<polygon id="XMLID_1710_" class="st3" points="687.1,-599.1 1200,-86.2 1200,-83.4 684.3,-599.1 				"/>
				<polygon id="XMLID_1709_" class="st3" points="744.2,-599.1 1200,-143.3 1200,-140.5 741.4,-599.1 				"/>
				<polygon id="XMLID_1708_" class="st3" points="801.4,-599.1 1200,-200.5 1200,-197.6 798.5,-599.1 				"/>
				<polygon id="XMLID_1707_" class="st3" points="858.5,-599.1 1200,-257.6 1200,-254.8 855.7,-599.1 				"/>
				<polygon id="XMLID_1706_" class="st3" points="915.7,-599.1 1200,-314.7 1200,-311.9 912.8,-599.1 				"/>
				<polygon id="XMLID_1705_" class="st3" points="972.8,-599.1 1200,-371.9 1200,-369.1 970,-599.1 				"/>
				<polygon id="XMLID_1704_" class="st3" points="1029.9,-599.1 1200,-429 1200,-426.2 1027.1,-599.1 				"/>
				<polygon id="XMLID_1703_" class="st3" points="1087.1,-599.1 1200,-486.2 1200,-483.3 1084.2,-599.1 				"/>
				<polygon id="XMLID_1702_" class="st3" points="1144.2,-599.1 1200,-543.3 1200,-540.5 1141.4,-599.1 				"/>
				<polygon id="XMLID_1701_" class="st3" points="1200,-599.1 1200,-597.6 1198.5,-599.1 				"/>
				<polygon id="XMLID_1700_" class="st3" points="655.3,600.9 0,-54.4 0,-57.2 658.2,600.9 				"/>
				<polygon id="XMLID_1699_" class="st3" points="598.2,600.9 0,2.7 0,-0.1 601,600.9 				"/>
				<polygon id="XMLID_1698_" class="st3" points="541,600.9 0,59.9 0,57 543.9,600.9 				"/>
				<polygon id="XMLID_1697_" class="st3" points="483.9,600.9 0,117 0,114.2 486.7,600.9 				"/>
				<polygon id="XMLID_1696_" class="st3" points="426.8,600.9 0,174.1 0,171.3 429.6,600.9 				"/>
				<polygon id="XMLID_1695_" class="st3" points="369.6,600.9 0,231.3 0,228.5 372.5,600.9 				"/>
				<polygon id="XMLID_1694_" class="st3" points="312.5,600.9 0,288.4 0,285.6 315.3,600.9 				"/>
				<polygon id="XMLID_1693_" class="st3" points="255.3,600.9 0,345.6 0,342.7 258.2,600.9 				"/>
				<polygon id="XMLID_1692_" class="st3" points="198.2,600.9 0,402.7 0,399.9 201,600.9 				"/>
				<polygon id="XMLID_1691_" class="st3" points="141.1,600.9 0,459.8 0,457 143.9,600.9 				"/>
				<polygon id="XMLID_1690_" class="st3" points="83.9,600.9 0,517 0,514.2 86.8,600.9 				"/>
				<polygon id="XMLID_1689_" class="st3" points="26.8,600.9 0,574.1 0,571.3 29.6,600.9 				"/>
				<polygon id="XMLID_1688_" class="st3" points="712.5,600.9 0,-111.6 0,-114.4 715.3,600.9 				"/>
				<polygon id="XMLID_1687_" class="st3" points="769.6,600.9 0,-168.7 0,-171.5 772.4,600.9 				"/>
				<polygon id="XMLID_1686_" class="st3" points="826.7,600.9 0,-225.8 0,-228.7 829.6,600.9 				"/>
				<polygon id="XMLID_1685_" class="st3" points="883.9,600.9 0,-283 0,-285.8 886.7,600.9 				"/>
				<polygon id="XMLID_1684_" class="st3" points="941,600.9 0,-340.1 0,-342.9 943.9,600.9 				"/>
				<polygon id="XMLID_1683_" class="st3" points="998.2,600.9 0,-397.3 0,-400.1 1001,600.9 				"/>
				<polygon id="XMLID_1682_" class="st3" points="1055.3,600.9 0,-454.4 0,-457.2 1058.1,600.9 				"/>
				<polygon id="XMLID_1681_" class="st3" points="1112.4,600.9 0,-511.5 0,-514.4 1115.3,600.9 				"/>
				<polygon id="XMLID_1680_" class="st3" points="1169.6,600.9 0,-568.7 0,-571.5 1172.4,600.9 				"/>
				<polygon id="XMLID_1679_" class="st3" points="29.6,-599.1 1200,571.4 1200,574.2 26.7,-599.1 				"/>
				<polygon id="XMLID_1678_" class="st3" points="86.7,-599.1 1200,514.2 1200,517 83.9,-599.1 				"/>
				<polygon id="XMLID_1677_" class="st3" points="143.8,-599.1 1200,457.1 1200,459.9 141,-599.1 				"/>
				<polygon id="XMLID_1676_" class="st3" points="201,-599.1 1200,399.9 1200,402.8 198.1,-599.1 				"/>
				<polygon id="XMLID_1675_" class="st3" points="258.1,-599.1 1200,342.8 1200,345.6 255.3,-599.1 				"/>
				<polygon id="XMLID_1674_" class="st3" points="315.3,-599.1 1200,285.7 1200,288.5 312.4,-599.1 				"/>
				<polygon id="XMLID_1673_" class="st3" points="372.4,-599.1 1200,228.5 1200,231.3 369.6,-599.1 				"/>
				<polygon id="XMLID_1672_" class="st3" points="429.5,-599.1 1200,171.4 1200,174.2 426.7,-599.1 				"/>
				<polygon id="XMLID_1671_" class="st3" points="486.7,-599.1 1200,114.2 1200,117.1 483.8,-599.1 				"/>
				<polygon id="XMLID_1670_" class="st3" points="543.8,-599.1 1200,57.1 1200,59.9 541,-599.1 				"/>
				<polygon id="XMLID_1669_" class="st3" points="601,-599.1 1200,0 1200,2.8 598.1,-599.1 				"/>
				<polygon id="XMLID_1668_" class="st3" points="658.1,-599.1 1200,-57.2 1200,-54.4 655.3,-599.1 				"/>
				<polygon id="XMLID_1667_" class="st3" points="715.2,-599.1 1200,-114.3 1200,-111.5 712.4,-599.1 				"/>
				<polygon id="XMLID_1666_" class="st3" points="772.4,-599.1 1200,-171.5 1200,-168.6 769.5,-599.1 				"/>
				<polygon id="XMLID_1665_" class="st3" points="829.5,-599.1 1200,-228.6 1200,-225.8 826.7,-599.1 				"/>
				<polygon id="XMLID_1664_" class="st3" points="886.7,-599.1 1200,-285.7 1200,-282.9 883.8,-599.1 				"/>
				<polygon id="XMLID_1663_" class="st3" points="943.8,-599.1 1200,-342.9 1200,-340.1 941,-599.1 				"/>
				<polygon id="XMLID_1662_" class="st3" points="1000.9,-599.1 1200,-400 1200,-397.2 998.1,-599.1 				"/>
				<polygon id="XMLID_1661_" class="st3" points="1058.1,-599.1 1200,-457.2 1200,-454.3 1055.2,-599.1 				"/>
				<polygon id="XMLID_1660_" class="st3" points="1115.2,-599.1 1200,-514.3 1200,-511.5 1112.4,-599.1 				"/>
				<polygon id="XMLID_1659_" class="st3" points="1172.4,-599.1 1200,-571.4 1200,-568.6 1169.5,-599.1 				"/>
			</g>
			<g id="XMLID_1570_" class="st2">
				<defs>
					<rect id="XMLID_1571_" x="299.5" y="-14.3" width="300" height="600"/>
				</defs>
				<clipPath id="XMLID_36_">
					<use xlink:href="#XMLID_1571_"  style="overflow:visible;"/>
				</clipPath>
				<polygon id="XMLID_1656_" class="st4" points="983.8,585.7 299.5,-98.6 299.5,-101.4 986.7,585.7 				"/>
				<polygon id="XMLID_1655_" class="st4" points="926.7,585.7 299.5,-41.5 299.5,-44.3 929.5,585.7 				"/>
				<polygon id="XMLID_1654_" class="st4" points="869.5,585.7 299.5,15.7 299.5,12.9 872.4,585.7 				"/>
				<polygon id="XMLID_1653_" class="st4" points="812.4,585.7 299.5,72.8 299.5,70 815.2,585.7 				"/>
				<polygon id="XMLID_1652_" class="st4" points="755.3,585.7 299.5,130 299.5,127.1 758.1,585.7 				"/>
				<polygon id="XMLID_1651_" class="st4" points="698.1,585.7 299.5,187.1 299.5,184.3 701,585.7 				"/>
				<polygon id="XMLID_1650_" class="st4" points="641,585.7 299.5,244.2 299.5,241.4 643.8,585.7 				"/>
				<polygon id="XMLID_1649_" class="st4" points="583.8,585.7 299.5,301.4 299.5,298.6 586.7,585.7 				"/>
				<polygon id="XMLID_1648_" class="st4" points="526.7,585.7 299.5,358.5 299.5,355.7 529.5,585.7 				"/>
				<polygon id="XMLID_1647_" class="st4" points="469.6,585.7 299.5,415.7 299.5,412.8 472.4,585.7 				"/>
				<polygon id="XMLID_1646_" class="st4" points="412.4,585.7 299.5,472.8 299.5,470 415.3,585.7 				"/>
				<polygon id="XMLID_1645_" class="st4" points="355.3,585.7 299.5,529.9 299.5,527.1 358.1,585.7 				"/>
				<polygon id="XMLID_1644_" class="st4" points="299.5,585.7 299.5,584.3 301,585.7 				"/>
				<polygon id="XMLID_1643_" class="st4" points="1041,585.7 299.5,-155.7 299.5,-158.6 1043.8,585.7 				"/>
				<polygon id="XMLID_1642_" class="st4" points="1098.1,585.7 299.5,-212.9 299.5,-215.7 1100.9,585.7 				"/>
				<polygon id="XMLID_1641_" class="st4" points="1155.2,585.7 299.5,-270 299.5,-272.8 1158.1,585.7 				"/>
				<polygon id="XMLID_1640_" class="st4" points="1212.4,585.7 299.5,-327.2 299.5,-330 1215.2,585.7 				"/>
				<polygon id="XMLID_1639_" class="st4" points="1269.5,585.7 299.5,-384.3 299.5,-387.1 1272.4,585.7 				"/>
				<polygon id="XMLID_1638_" class="st4" points="1326.7,585.7 299.5,-441.4 299.5,-444.3 1329.5,585.7 				"/>
				<polygon id="XMLID_1637_" class="st4" points="1383.8,585.7 299.5,-498.6 299.5,-501.4 1386.6,585.7 				"/>
				<polygon id="XMLID_1636_" class="st4" points="1440.9,585.7 299.5,-555.7 299.5,-558.5 1443.8,585.7 				"/>
				<polygon id="XMLID_1635_" class="st4" points="299.5,-614.3 300.9,-614.3 1499.5,584.3 1499.5,585.7 1498.1,585.7 299.5,-612.9 
									"/>
				<polygon id="XMLID_1634_" class="st4" points="358.1,-614.3 1499.5,527.2 1499.5,530 355.2,-614.3 				"/>
				<polygon id="XMLID_1633_" class="st4" points="415.2,-614.3 1499.5,470 1499.5,472.9 412.4,-614.3 				"/>
				<polygon id="XMLID_1632_" class="st4" points="472.3,-614.3 1499.5,412.9 1499.5,415.7 469.5,-614.3 				"/>
				<polygon id="XMLID_1631_" class="st4" points="529.5,-614.3 1499.5,355.8 1499.5,358.6 526.6,-614.3 				"/>
				<polygon id="XMLID_1630_" class="st4" points="586.6,-614.3 1499.5,298.6 1499.5,301.4 583.8,-614.3 				"/>
				<polygon id="XMLID_1629_" class="st4" points="643.8,-614.3 1499.5,241.5 1499.5,244.3 640.9,-614.3 				"/>
				<polygon id="XMLID_1628_" class="st4" points="700.9,-614.3 1499.5,184.3 1499.5,187.2 698.1,-614.3 				"/>
				<polygon id="XMLID_1627_" class="st4" points="758,-614.3 1499.5,127.2 1499.5,130 755.2,-614.3 				"/>
				<polygon id="XMLID_1626_" class="st4" points="815.2,-614.3 1499.5,70.1 1499.5,72.9 812.3,-614.3 				"/>
				<polygon id="XMLID_1625_" class="st4" points="872.3,-614.3 1499.5,12.9 1499.5,15.8 869.5,-614.3 				"/>
				<polygon id="XMLID_1624_" class="st4" points="929.5,-614.3 1499.5,-44.2 1499.5,-41.4 926.6,-614.3 				"/>
				<polygon id="XMLID_1623_" class="st4" points="986.6,-614.3 1499.5,-101.4 1499.5,-98.5 983.8,-614.3 				"/>
				<polygon id="XMLID_1622_" class="st4" points="1043.7,-614.3 1499.5,-158.5 1499.5,-155.7 1040.9,-614.3 				"/>
				<polygon id="XMLID_1621_" class="st4" points="1100.9,-614.3 1499.5,-215.6 1499.5,-212.8 1098,-614.3 				"/>
				<polygon id="XMLID_1620_" class="st4" points="1158,-614.3 1499.5,-272.8 1499.5,-269.9 1155.2,-614.3 				"/>
				<polygon id="XMLID_1619_" class="st4" points="1215.2,-614.3 1499.5,-329.9 1499.5,-327.1 1212.3,-614.3 				"/>
				<polygon id="XMLID_1618_" class="st4" points="1272.3,-614.3 1499.5,-387.1 1499.5,-384.2 1269.5,-614.3 				"/>
				<polygon id="XMLID_1617_" class="st4" points="1329.4,-614.3 1499.5,-444.2 1499.5,-441.4 1326.6,-614.3 				"/>
				<polygon id="XMLID_1616_" class="st4" points="1386.6,-614.3 1499.5,-501.3 1499.5,-498.5 1383.7,-614.3 				"/>
				<polygon id="XMLID_1615_" class="st4" points="1443.7,-614.3 1499.5,-558.5 1499.5,-555.6 1440.9,-614.3 				"/>
				<polygon id="XMLID_1614_" class="st4" points="1499.5,-614.3 1499.5,-612.8 1498,-614.3 				"/>
				<polygon id="XMLID_1613_" class="st4" points="954.8,585.7 299.5,-69.6 299.5,-72.4 957.7,585.7 				"/>
				<polygon id="XMLID_1612_" class="st4" points="897.7,585.7 299.5,-12.5 299.5,-15.3 900.5,585.7 				"/>
				<polygon id="XMLID_1611_" class="st4" points="840.5,585.7 299.5,44.7 299.5,41.9 843.4,585.7 				"/>
				<polygon id="XMLID_1610_" class="st4" points="783.4,585.7 299.5,101.8 299.5,99 786.2,585.7 				"/>
				<polygon id="XMLID_1609_" class="st4" points="726.3,585.7 299.5,159 299.5,156.1 729.1,585.7 				"/>
				<polygon id="XMLID_1608_" class="st4" points="669.1,585.7 299.5,216.1 299.5,213.3 672,585.7 				"/>
				<polygon id="XMLID_1607_" class="st4" points="612,585.7 299.5,273.2 299.5,270.4 614.8,585.7 				"/>
				<polygon id="XMLID_1606_" class="st4" points="554.8,585.7 299.5,330.4 299.5,327.6 557.7,585.7 				"/>
				<polygon id="XMLID_1605_" class="st4" points="497.7,585.7 299.5,387.5 299.5,384.7 500.5,585.7 				"/>
				<polygon id="XMLID_1604_" class="st4" points="440.6,585.7 299.5,444.7 299.5,441.8 443.4,585.7 				"/>
				<polygon id="XMLID_1603_" class="st4" points="383.4,585.7 299.5,501.8 299.5,499 386.3,585.7 				"/>
				<polygon id="XMLID_1602_" class="st4" points="326.3,585.7 299.5,558.9 299.5,556.1 329.1,585.7 				"/>
				<polygon id="XMLID_1601_" class="st4" points="1012,585.7 299.5,-126.7 299.5,-129.6 1014.8,585.7 				"/>
				<polygon id="XMLID_1600_" class="st4" points="1069.1,585.7 299.5,-183.9 299.5,-186.7 1071.9,585.7 				"/>
				<polygon id="XMLID_1599_" class="st4" points="1126.2,585.7 299.5,-241 299.5,-243.8 1129.1,585.7 				"/>
				<polygon id="XMLID_1598_" class="st4" points="1183.4,585.7 299.5,-298.2 299.5,-301 1186.2,585.7 				"/>
				<polygon id="XMLID_1597_" class="st4" points="1240.5,585.7 299.5,-355.3 299.5,-358.1 1243.4,585.7 				"/>
				<polygon id="XMLID_1596_" class="st4" points="1297.7,585.7 299.5,-412.4 299.5,-415.3 1300.5,585.7 				"/>
				<polygon id="XMLID_1595_" class="st4" points="1354.8,585.7 299.5,-469.6 299.5,-472.4 1357.6,585.7 				"/>
				<polygon id="XMLID_1594_" class="st4" points="1411.9,585.7 299.5,-526.7 299.5,-529.5 1414.8,585.7 				"/>
				<polygon id="XMLID_1593_" class="st4" points="1469.1,585.7 299.5,-583.9 299.5,-586.7 1471.9,585.7 				"/>
				<polygon id="XMLID_1592_" class="st4" points="329.1,-614.3 1499.5,556.2 1499.5,559 326.2,-614.3 				"/>
				<polygon id="XMLID_1591_" class="st4" points="386.2,-614.3 1499.5,499 1499.5,501.9 383.4,-614.3 				"/>
				<polygon id="XMLID_1590_" class="st4" points="443.3,-614.3 1499.5,441.9 1499.5,444.7 440.5,-614.3 				"/>
				<polygon id="XMLID_1589_" class="st4" points="500.5,-614.3 1499.5,384.8 1499.5,387.6 497.6,-614.3 				"/>
				<polygon id="XMLID_1588_" class="st4" points="557.6,-614.3 1499.5,327.6 1499.5,330.4 554.8,-614.3 				"/>
				<polygon id="XMLID_1587_" class="st4" points="614.8,-614.3 1499.5,270.5 1499.5,273.3 611.9,-614.3 				"/>
				<polygon id="XMLID_1586_" class="st4" points="671.9,-614.3 1499.5,213.3 1499.5,216.2 669.1,-614.3 				"/>
				<polygon id="XMLID_1585_" class="st4" points="729,-614.3 1499.5,156.2 1499.5,159 726.2,-614.3 				"/>
				<polygon id="XMLID_1584_" class="st4" points="786.2,-614.3 1499.5,99.1 1499.5,101.9 783.3,-614.3 				"/>
				<polygon id="XMLID_1583_" class="st4" points="843.3,-614.3 1499.5,41.9 1499.5,44.8 840.5,-614.3 				"/>
				<polygon id="XMLID_1582_" class="st4" points="900.5,-614.3 1499.5,-15.2 1499.5,-12.4 897.6,-614.3 				"/>
				<polygon id="XMLID_1581_" class="st4" points="957.6,-614.3 1499.5,-72.4 1499.5,-69.5 954.8,-614.3 				"/>
				<polygon id="XMLID_1580_" class="st4" points="1014.7,-614.3 1499.5,-129.5 1499.5,-126.7 1011.9,-614.3 				"/>
				<polygon id="XMLID_1579_" class="st4" points="1071.9,-614.3 1499.5,-186.6 1499.5,-183.8 1069,-614.3 				"/>
				<polygon id="XMLID_1578_" class="st4" points="1129,-614.3 1499.5,-243.8 1499.5,-240.9 1126.2,-614.3 				"/>
				<polygon id="XMLID_1577_" class="st4" points="1186.2,-614.3 1499.5,-300.9 1499.5,-298.1 1183.3,-614.3 				"/>
				<polygon id="XMLID_1576_" class="st4" points="1243.3,-614.3 1499.5,-358.1 1499.5,-355.2 1240.5,-614.3 				"/>
				<polygon id="XMLID_1575_" class="st4" points="1300.4,-614.3 1499.5,-415.2 1499.5,-412.4 1297.6,-614.3 				"/>
				<polygon id="XMLID_1574_" class="st4" points="1357.6,-614.3 1499.5,-472.3 1499.5,-469.5 1354.7,-614.3 				"/>
				<polygon id="XMLID_1573_" class="st4" points="1414.7,-614.3 1499.5,-529.5 1499.5,-526.6 1411.9,-614.3 				"/>
				<polygon id="XMLID_1572_" class="st4" points="1471.9,-614.3 1499.5,-586.6 1499.5,-583.8 1469,-614.3 				"/>
			</g>
			<g id="XMLID_1483_" class="st2">
				<defs>
					<rect id="XMLID_1484_" x="598.7" y="0.1" width="300" height="600"/>
				</defs>
				<clipPath id="XMLID_37_">
					<use xlink:href="#XMLID_1484_"  style="overflow:visible;"/>
				</clipPath>
				<polygon id="XMLID_1569_" class="st5" points="1283.1,600.1 598.7,-84.2 598.7,-87.1 1285.9,600.1 				"/>
				<polygon id="XMLID_1568_" class="st5" points="1225.9,600.1 598.7,-27.1 598.7,-29.9 1228.8,600.1 				"/>
				<polygon id="XMLID_1567_" class="st5" points="1168.8,600.1 598.7,30 598.7,27.2 1171.6,600.1 				"/>
				<polygon id="XMLID_1566_" class="st5" points="1111.6,600.1 598.7,87.2 598.7,84.4 1114.5,600.1 				"/>
				<polygon id="XMLID_1565_" class="st5" points="1054.5,600.1 598.7,144.3 598.7,141.5 1057.3,600.1 				"/>
				<polygon id="XMLID_1564_" class="st5" points="997.4,600.1 598.7,201.5 598.7,198.6 1000.2,600.1 				"/>
				<polygon id="XMLID_1563_" class="st5" points="940.2,600.1 598.7,258.6 598.7,255.8 943.1,600.1 				"/>
				<polygon id="XMLID_1562_" class="st5" points="883.1,600.1 598.7,315.7 598.7,312.9 885.9,600.1 				"/>
				<polygon id="XMLID_1561_" class="st5" points="825.9,600.1 598.7,372.9 598.7,370.1 828.8,600.1 				"/>
				<polygon id="XMLID_1560_" class="st5" points="768.8,600.1 598.7,430 598.7,427.2 771.6,600.1 				"/>
				<polygon id="XMLID_1559_" class="st5" points="711.7,600.1 598.7,487.2 598.7,484.3 714.5,600.1 				"/>
				<polygon id="XMLID_1558_" class="st5" points="654.5,600.1 598.7,544.3 598.7,541.5 657.4,600.1 				"/>
				<polygon id="XMLID_1557_" class="st5" points="598.7,600.1 598.7,598.6 600.2,600.1 				"/>
				<polygon id="XMLID_1556_" class="st5" points="1340.2,600.1 598.7,-141.4 598.7,-144.2 1343,600.1 				"/>
				<polygon id="XMLID_1555_" class="st5" points="1397.3,600.1 598.7,-198.5 598.7,-201.3 1400.2,600.1 				"/>
				<polygon id="XMLID_1554_" class="st5" points="1454.5,600.1 598.7,-255.7 598.7,-258.5 1457.3,600.1 				"/>
				<polygon id="XMLID_1553_" class="st5" points="1511.6,600.1 598.7,-312.8 598.7,-315.6 1514.5,600.1 				"/>
				<polygon id="XMLID_1552_" class="st5" points="1568.8,600.1 598.7,-369.9 598.7,-372.8 1571.6,600.1 				"/>
				<polygon id="XMLID_1551_" class="st5" points="1625.9,600.1 598.7,-427.1 598.7,-429.9 1628.7,600.1 				"/>
				<polygon id="XMLID_1550_" class="st5" points="1683,600.1 598.7,-484.2 598.7,-487 1685.9,600.1 				"/>
				<polygon id="XMLID_1549_" class="st5" points="1740.2,600.1 598.7,-541.4 598.7,-544.2 1743,600.1 				"/>
				<polygon id="XMLID_1548_" class="st5" points="598.7,-599.9 600.2,-599.9 1798.7,598.7 1798.7,600.1 1797.3,600.1 598.7,-598.5 
									"/>
				<polygon id="XMLID_1547_" class="st5" points="657.3,-599.9 1798.7,541.5 1798.7,544.4 654.5,-599.9 				"/>
				<polygon id="XMLID_1546_" class="st5" points="714.4,-599.9 1798.7,484.4 1798.7,487.2 711.6,-599.9 				"/>
				<polygon id="XMLID_1545_" class="st5" points="771.6,-599.9 1798.7,427.3 1798.7,430.1 768.7,-599.9 				"/>
				<polygon id="XMLID_1544_" class="st5" points="828.7,-599.9 1798.7,370.1 1798.7,372.9 825.9,-599.9 				"/>
				<polygon id="XMLID_1543_" class="st5" points="885.9,-599.9 1798.7,313 1798.7,315.8 883,-599.9 				"/>
				<polygon id="XMLID_1542_" class="st5" points="943,-599.9 1798.7,255.8 1798.7,258.7 940.2,-599.9 				"/>
				<polygon id="XMLID_1541_" class="st5" points="1000.1,-599.9 1798.7,198.7 1798.7,201.5 997.3,-599.9 				"/>
				<polygon id="XMLID_1540_" class="st5" points="1057.3,-599.9 1798.7,141.6 1798.7,144.4 1054.4,-599.9 				"/>
				<polygon id="XMLID_1539_" class="st5" points="1114.4,-599.9 1798.7,84.4 1798.7,87.2 1111.6,-599.9 				"/>
				<polygon id="XMLID_1538_" class="st5" points="1171.6,-599.9 1798.7,27.3 1798.7,30.1 1168.7,-599.9 				"/>
				<polygon id="XMLID_1537_" class="st5" points="1228.7,-599.9 1798.7,-29.9 1798.7,-27 1225.9,-599.9 				"/>
				<polygon id="XMLID_1536_" class="st5" points="1285.8,-599.9 1798.7,-87 1798.7,-84.2 1283,-599.9 				"/>
				<polygon id="XMLID_1535_" class="st5" points="1343,-599.9 1798.7,-144.1 1798.7,-141.3 1340.1,-599.9 				"/>
				<polygon id="XMLID_1534_" class="st5" points="1400.1,-599.9 1798.7,-201.3 1798.7,-198.5 1397.3,-599.9 				"/>
				<polygon id="XMLID_1533_" class="st5" points="1457.3,-599.9 1798.7,-258.4 1798.7,-255.6 1454.4,-599.9 				"/>
				<polygon id="XMLID_1532_" class="st5" points="1514.4,-599.9 1798.7,-315.6 1798.7,-312.7 1511.6,-599.9 				"/>
				<polygon id="XMLID_1531_" class="st5" points="1571.5,-599.9 1798.7,-372.7 1798.7,-369.9 1568.7,-599.9 				"/>
				<polygon id="XMLID_1530_" class="st5" points="1628.7,-599.9 1798.7,-429.8 1798.7,-427 1625.8,-599.9 				"/>
				<polygon id="XMLID_1529_" class="st5" points="1685.8,-599.9 1798.7,-487 1798.7,-484.2 1683,-599.9 				"/>
				<polygon id="XMLID_1528_" class="st5" points="1743,-599.9 1798.7,-544.1 1798.7,-541.3 1740.1,-599.9 				"/>
				<polygon id="XMLID_1527_" class="st5" points="1798.7,-599.9 1798.7,-598.4 1797.3,-599.9 				"/>
				<polygon id="XMLID_1526_" class="st5" points="1254.1,600.1 598.7,-55.2 598.7,-58.1 1256.9,600.1 				"/>
				<polygon id="XMLID_1525_" class="st5" points="1196.9,600.1 598.7,1.9 598.7,-0.9 1199.8,600.1 				"/>
				<polygon id="XMLID_1524_" class="st5" points="1139.8,600.1 598.7,59 598.7,56.2 1142.6,600.1 				"/>
				<polygon id="XMLID_1523_" class="st5" points="1082.6,600.1 598.7,116.2 598.7,113.4 1085.5,600.1 				"/>
				<polygon id="XMLID_1522_" class="st5" points="1025.5,600.1 598.7,173.3 598.7,170.5 1028.3,600.1 				"/>
				<polygon id="XMLID_1521_" class="st5" points="968.4,600.1 598.7,230.5 598.7,227.6 971.2,600.1 				"/>
				<polygon id="XMLID_1520_" class="st5" points="911.2,600.1 598.7,287.6 598.7,284.8 914.1,600.1 				"/>
				<polygon id="XMLID_1519_" class="st5" points="854.1,600.1 598.7,344.7 598.7,341.9 856.9,600.1 				"/>
				<polygon id="XMLID_1518_" class="st5" points="796.9,600.1 598.7,401.9 598.7,399.1 799.8,600.1 				"/>
				<polygon id="XMLID_1517_" class="st5" points="739.8,600.1 598.7,459 598.7,456.2 742.6,600.1 				"/>
				<polygon id="XMLID_1516_" class="st5" points="682.7,600.1 598.7,516.2 598.7,513.3 685.5,600.1 				"/>
				<polygon id="XMLID_1515_" class="st5" points="625.5,600.1 598.7,573.3 598.7,570.5 628.4,600.1 				"/>
				<polygon id="XMLID_1514_" class="st5" points="1311.2,600.1 598.7,-112.4 598.7,-115.2 1314,600.1 				"/>
				<polygon id="XMLID_1513_" class="st5" points="1368.3,600.1 598.7,-169.5 598.7,-172.3 1371.2,600.1 				"/>
				<polygon id="XMLID_1512_" class="st5" points="1425.5,600.1 598.7,-226.7 598.7,-229.5 1428.3,600.1 				"/>
				<polygon id="XMLID_1511_" class="st5" points="1482.6,600.1 598.7,-283.8 598.7,-286.6 1485.5,600.1 				"/>
				<polygon id="XMLID_1510_" class="st5" points="1539.8,600.1 598.7,-340.9 598.7,-343.8 1542.6,600.1 				"/>
				<polygon id="XMLID_1509_" class="st5" points="1596.9,600.1 598.7,-398.1 598.7,-400.9 1599.7,600.1 				"/>
				<polygon id="XMLID_1508_" class="st5" points="1654,600.1 598.7,-455.2 598.7,-458 1656.9,600.1 				"/>
				<polygon id="XMLID_1507_" class="st5" points="1711.2,600.1 598.7,-512.4 598.7,-515.2 1714,600.1 				"/>
				<polygon id="XMLID_1506_" class="st5" points="1768.3,600.1 598.7,-569.5 598.7,-572.3 1771.2,600.1 				"/>
				<polygon id="XMLID_1505_" class="st5" points="628.3,-599.9 1798.7,570.5 1798.7,573.4 625.5,-599.9 				"/>
				<polygon id="XMLID_1504_" class="st5" points="685.4,-599.9 1798.7,513.4 1798.7,516.2 682.6,-599.9 				"/>
				<polygon id="XMLID_1503_" class="st5" points="742.6,-599.9 1798.7,456.3 1798.7,459.1 739.7,-599.9 				"/>
				<polygon id="XMLID_1502_" class="st5" points="799.7,-599.9 1798.7,399.1 1798.7,401.9 796.9,-599.9 				"/>
				<polygon id="XMLID_1501_" class="st5" points="856.9,-599.9 1798.7,342 1798.7,344.8 854,-599.9 				"/>
				<polygon id="XMLID_1500_" class="st5" points="914,-599.9 1798.7,284.8 1798.7,287.7 911.2,-599.9 				"/>
				<polygon id="XMLID_1499_" class="st5" points="971.1,-599.9 1798.7,227.7 1798.7,230.5 968.3,-599.9 				"/>
				<polygon id="XMLID_1498_" class="st5" points="1028.3,-599.9 1798.7,170.6 1798.7,173.4 1025.4,-599.9 				"/>
				<polygon id="XMLID_1497_" class="st5" points="1085.4,-599.9 1798.7,113.4 1798.7,116.2 1082.6,-599.9 				"/>
				<polygon id="XMLID_1496_" class="st5" points="1142.6,-599.9 1798.7,56.3 1798.7,59.1 1139.7,-599.9 				"/>
				<polygon id="XMLID_1495_" class="st5" points="1199.7,-599.9 1798.7,-0.9 1798.7,2 1196.9,-599.9 				"/>
				<polygon id="XMLID_1494_" class="st5" points="1256.8,-599.9 1798.7,-58 1798.7,-55.2 1254,-599.9 				"/>
				<polygon id="XMLID_1493_" class="st5" points="1314,-599.9 1798.7,-115.1 1798.7,-112.3 1311.1,-599.9 				"/>
				<polygon id="XMLID_1492_" class="st5" points="1371.1,-599.9 1798.7,-172.3 1798.7,-169.5 1368.3,-599.9 				"/>
				<polygon id="XMLID_1491_" class="st5" points="1428.3,-599.9 1798.7,-229.4 1798.7,-226.6 1425.4,-599.9 				"/>
				<polygon id="XMLID_1490_" class="st5" points="1485.4,-599.9 1798.7,-286.6 1798.7,-283.7 1482.6,-599.9 				"/>
				<polygon id="XMLID_1489_" class="st5" points="1542.5,-599.9 1798.7,-343.7 1798.7,-340.9 1539.7,-599.9 				"/>
				<polygon id="XMLID_1488_" class="st5" points="1599.7,-599.9 1798.7,-400.8 1798.7,-398 1596.8,-599.9 				"/>
				<polygon id="XMLID_1487_" class="st5" points="1656.8,-599.9 1798.7,-458 1798.7,-455.2 1654,-599.9 				"/>
				<polygon id="XMLID_1486_" class="st5" points="1714,-599.9 1798.7,-515.1 1798.7,-512.3 1711.1,-599.9 				"/>
				<polygon id="XMLID_1485_" class="st5" points="1771.1,-599.9 1798.7,-572.3 1798.7,-569.4 1768.3,-599.9 				"/>
			</g>
			<g id="XMLID_1396_" class="st2">
				<defs>
					<rect id="XMLID_1397_" x="883" y="-1.4" width="300" height="600"/>
				</defs>
				<clipPath id="XMLID_38_">
					<use xlink:href="#XMLID_1397_"  style="overflow:visible;"/>
				</clipPath>
				<polygon id="XMLID_1482_" class="st6" points="1567.3,598.6 883,-85.7 883,-88.5 1570.1,598.6 				"/>
				<polygon id="XMLID_1481_" class="st6" points="1510.2,598.6 883,-28.6 883,-31.4 1513,598.6 				"/>
				<polygon id="XMLID_1480_" class="st6" points="1453,598.6 883,28.6 883,25.8 1455.9,598.6 				"/>
				<polygon id="XMLID_1479_" class="st6" points="1395.9,598.6 883,85.7 883,82.9 1398.7,598.6 				"/>
				<polygon id="XMLID_1478_" class="st6" points="1338.7,598.6 883,142.9 883,140 1341.6,598.6 				"/>
				<polygon id="XMLID_1477_" class="st6" points="1281.6,598.6 883,200 883,197.2 1284.4,598.6 				"/>
				<polygon id="XMLID_1476_" class="st6" points="1224.5,598.6 883,257.1 883,254.3 1227.3,598.6 				"/>
				<polygon id="XMLID_1475_" class="st6" points="1167.3,598.6 883,314.3 883,311.5 1170.2,598.6 				"/>
				<polygon id="XMLID_1474_" class="st6" points="1110.2,598.6 883,371.4 883,368.6 1113,598.6 				"/>
				<polygon id="XMLID_1473_" class="st6" points="1053,598.6 883,428.6 883,425.7 1055.9,598.6 				"/>
				<polygon id="XMLID_1472_" class="st6" points="995.9,598.6 883,485.7 883,482.9 998.7,598.6 				"/>
				<polygon id="XMLID_1471_" class="st6" points="938.8,598.6 883,542.8 883,540 941.6,598.6 				"/>
				<polygon id="XMLID_1470_" class="st6" points="883,598.6 883,597.2 884.5,598.6 				"/>
				<polygon id="XMLID_1469_" class="st6" points="1624.4,598.6 883,-142.8 883,-145.7 1627.3,598.6 				"/>
				<polygon id="XMLID_1468_" class="st6" points="1681.6,598.6 883,-200 883,-202.8 1684.4,598.6 				"/>
				<polygon id="XMLID_1467_" class="st6" points="1738.7,598.6 883,-257.1 883,-259.9 1741.6,598.6 				"/>
				<polygon id="XMLID_1466_" class="st6" points="1795.9,598.6 883,-314.3 883,-317.1 1798.7,598.6 				"/>
				<polygon id="XMLID_1465_" class="st6" points="1853,598.6 883,-371.4 883,-374.2 1855.8,598.6 				"/>
				<polygon id="XMLID_1464_" class="st6" points="1910.1,598.6 883,-428.5 883,-431.4 1913,598.6 				"/>
				<polygon id="XMLID_1463_" class="st6" points="1967.3,598.6 883,-485.7 883,-488.5 1970.1,598.6 				"/>
				<polygon id="XMLID_1462_" class="st6" points="2024.4,598.6 883,-542.8 883,-545.6 2027.3,598.6 				"/>
				<polygon id="XMLID_1461_" class="st6" points="883,-601.4 884.4,-601.4 2083,597.2 2083,598.6 2081.6,598.6 883,-600 				"/>
				<polygon id="XMLID_1460_" class="st6" points="941.5,-601.4 2083,540.1 2083,542.9 938.7,-601.4 				"/>
				<polygon id="XMLID_1459_" class="st6" points="998.7,-601.4 2083,482.9 2083,485.8 995.8,-601.4 				"/>
				<polygon id="XMLID_1458_" class="st6" points="1055.8,-601.4 2083,425.8 2083,428.6 1053,-601.4 				"/>
				<polygon id="XMLID_1457_" class="st6" points="1113,-601.4 2083,368.7 2083,371.5 1110.1,-601.4 				"/>
				<polygon id="XMLID_1456_" class="st6" points="1170.1,-601.4 2083,311.5 2083,314.3 1167.3,-601.4 				"/>
				<polygon id="XMLID_1455_" class="st6" points="1227.2,-601.4 2083,254.4 2083,257.2 1224.4,-601.4 				"/>
				<polygon id="XMLID_1454_" class="st6" points="1284.4,-601.4 2083,197.2 2083,200.1 1281.5,-601.4 				"/>
				<polygon id="XMLID_1453_" class="st6" points="1341.5,-601.4 2083,140.1 2083,142.9 1338.7,-601.4 				"/>
				<polygon id="XMLID_1452_" class="st6" points="1398.7,-601.4 2083,83 2083,85.8 1395.8,-601.4 				"/>
				<polygon id="XMLID_1451_" class="st6" points="1455.8,-601.4 2083,25.8 2083,28.6 1453,-601.4 				"/>
				<polygon id="XMLID_1450_" class="st6" points="1512.9,-601.4 2083,-31.3 2083,-28.5 1510.1,-601.4 				"/>
				<polygon id="XMLID_1449_" class="st6" points="1570.1,-601.4 2083,-88.5 2083,-85.6 1567.2,-601.4 				"/>
				<polygon id="XMLID_1448_" class="st6" points="1627.2,-601.4 2083,-145.6 2083,-142.8 1624.4,-601.4 				"/>
				<polygon id="XMLID_1447_" class="st6" points="1684.4,-601.4 2083,-202.7 2083,-199.9 1681.5,-601.4 				"/>
				<polygon id="XMLID_1446_" class="st6" points="1741.5,-601.4 2083,-259.9 2083,-257.1 1738.7,-601.4 				"/>
				<polygon id="XMLID_1445_" class="st6" points="1798.6,-601.4 2083,-317 2083,-314.2 1795.8,-601.4 				"/>
				<polygon id="XMLID_1444_" class="st6" points="1855.8,-601.4 2083,-374.2 2083,-371.3 1852.9,-601.4 				"/>
				<polygon id="XMLID_1443_" class="st6" points="1912.9,-601.4 2083,-431.3 2083,-428.5 1910.1,-601.4 				"/>
				<polygon id="XMLID_1442_" class="st6" points="1970.1,-601.4 2083,-488.4 2083,-485.6 1967.2,-601.4 				"/>
				<polygon id="XMLID_1441_" class="st6" points="2027.2,-601.4 2083,-545.6 2083,-542.8 2024.4,-601.4 				"/>
				<polygon id="XMLID_1440_" class="st6" points="2083,-601.4 2083,-599.9 2081.5,-601.4 				"/>
				<polygon id="XMLID_1439_" class="st6" points="1538.3,598.6 883,-56.7 883,-59.5 1541.1,598.6 				"/>
				<polygon id="XMLID_1438_" class="st6" points="1481.2,598.6 883,0.4 883,-2.4 1484,598.6 				"/>
				<polygon id="XMLID_1437_" class="st6" points="1424,598.6 883,57.6 883,54.8 1426.9,598.6 				"/>
				<polygon id="XMLID_1436_" class="st6" points="1366.9,598.6 883,114.7 883,111.9 1369.7,598.6 				"/>
				<polygon id="XMLID_1435_" class="st6" points="1309.7,598.6 883,171.9 883,169 1312.6,598.6 				"/>
				<polygon id="XMLID_1434_" class="st6" points="1252.6,598.6 883,229 883,226.2 1255.4,598.6 				"/>
				<polygon id="XMLID_1433_" class="st6" points="1195.5,598.6 883,286.1 883,283.3 1198.3,598.6 				"/>
				<polygon id="XMLID_1432_" class="st6" points="1138.3,598.6 883,343.3 883,340.5 1141.2,598.6 				"/>
				<polygon id="XMLID_1431_" class="st6" points="1081.2,598.6 883,400.4 883,397.6 1084,598.6 				"/>
				<polygon id="XMLID_1430_" class="st6" points="1024,598.6 883,457.6 883,454.7 1026.9,598.6 				"/>
				<polygon id="XMLID_1429_" class="st6" points="966.9,598.6 883,514.7 883,511.9 969.7,598.6 				"/>
				<polygon id="XMLID_1428_" class="st6" points="909.8,598.6 883,571.8 883,569 912.6,598.6 				"/>
				<polygon id="XMLID_1427_" class="st6" points="1595.4,598.6 883,-113.8 883,-116.7 1598.3,598.6 				"/>
				<polygon id="XMLID_1426_" class="st6" points="1652.6,598.6 883,-171 883,-173.8 1655.4,598.6 				"/>
				<polygon id="XMLID_1425_" class="st6" points="1709.7,598.6 883,-228.1 883,-230.9 1712.6,598.6 				"/>
				<polygon id="XMLID_1424_" class="st6" points="1766.9,598.6 883,-285.3 883,-288.1 1769.7,598.6 				"/>
				<polygon id="XMLID_1423_" class="st6" points="1824,598.6 883,-342.4 883,-345.2 1826.8,598.6 				"/>
				<polygon id="XMLID_1422_" class="st6" points="1881.1,598.6 883,-399.5 883,-402.4 1884,598.6 				"/>
				<polygon id="XMLID_1421_" class="st6" points="1938.3,598.6 883,-456.7 883,-459.5 1941.1,598.6 				"/>
				<polygon id="XMLID_1420_" class="st6" points="1995.4,598.6 883,-513.8 883,-516.6 1998.3,598.6 				"/>
				<polygon id="XMLID_1419_" class="st6" points="2052.6,598.6 883,-571 883,-573.8 2055.4,598.6 				"/>
				<polygon id="XMLID_1418_" class="st6" points="912.5,-601.4 2083,569.1 2083,571.9 909.7,-601.4 				"/>
				<polygon id="XMLID_1417_" class="st6" points="969.7,-601.4 2083,511.9 2083,514.8 966.8,-601.4 				"/>
				<polygon id="XMLID_1416_" class="st6" points="1026.8,-601.4 2083,454.8 2083,457.6 1024,-601.4 				"/>
				<polygon id="XMLID_1415_" class="st6" points="1084,-601.4 2083,397.7 2083,400.5 1081.1,-601.4 				"/>
				<polygon id="XMLID_1414_" class="st6" points="1141.1,-601.4 2083,340.5 2083,343.3 1138.3,-601.4 				"/>
				<polygon id="XMLID_1413_" class="st6" points="1198.2,-601.4 2083,283.4 2083,286.2 1195.4,-601.4 				"/>
				<polygon id="XMLID_1412_" class="st6" points="1255.4,-601.4 2083,226.2 2083,229.1 1252.5,-601.4 				"/>
				<polygon id="XMLID_1411_" class="st6" points="1312.5,-601.4 2083,169.1 2083,171.9 1309.7,-601.4 				"/>
				<polygon id="XMLID_1410_" class="st6" points="1369.7,-601.4 2083,112 2083,114.8 1366.8,-601.4 				"/>
				<polygon id="XMLID_1409_" class="st6" points="1426.8,-601.4 2083,54.8 2083,57.6 1424,-601.4 				"/>
				<polygon id="XMLID_1408_" class="st6" points="1483.9,-601.4 2083,-2.3 2083,0.5 1481.1,-601.4 				"/>
				<polygon id="XMLID_1407_" class="st6" points="1541.1,-601.4 2083,-59.5 2083,-56.6 1538.2,-601.4 				"/>
				<polygon id="XMLID_1406_" class="st6" points="1598.2,-601.4 2083,-116.6 2083,-113.8 1595.4,-601.4 				"/>
				<polygon id="XMLID_1405_" class="st6" points="1655.4,-601.4 2083,-173.7 2083,-170.9 1652.5,-601.4 				"/>
				<polygon id="XMLID_1404_" class="st6" points="1712.5,-601.4 2083,-230.9 2083,-228.1 1709.7,-601.4 				"/>
				<polygon id="XMLID_1403_" class="st6" points="1769.6,-601.4 2083,-288 2083,-285.2 1766.8,-601.4 				"/>
				<polygon id="XMLID_1402_" class="st6" points="1826.8,-601.4 2083,-345.2 2083,-342.3 1823.9,-601.4 				"/>
				<polygon id="XMLID_1401_" class="st6" points="1883.9,-601.4 2083,-402.3 2083,-399.5 1881.1,-601.4 				"/>
				<polygon id="XMLID_1400_" class="st6" points="1941.1,-601.4 2083,-459.4 2083,-456.6 1938.2,-601.4 				"/>
				<polygon id="XMLID_1399_" class="st6" points="1998.2,-601.4 2083,-516.6 2083,-513.8 1995.4,-601.4 				"/>
				<polygon id="XMLID_1398_" class="st6" points="2055.3,-601.4 2083,-573.7 2083,-570.9 2052.5,-601.4 				"/>
			</g>
			<g id="XMLID_1309_" class="st2">
				<defs>
					<rect id="XMLID_1310_" x="1161.8" y="-8.2" width="300" height="600"/>
				</defs>
				<clipPath id="XMLID_39_">
					<use xlink:href="#XMLID_1310_"  style="overflow:visible;"/>
				</clipPath>
				<polygon id="XMLID_1395_" class="st7" points="1846.1,591.8 1161.8,-92.6 1161.8,-95.4 1848.9,591.8 				"/>
				<polygon id="XMLID_1394_" class="st7" points="1789,591.8 1161.8,-35.4 1161.8,-38.2 1791.8,591.8 				"/>
				<polygon id="XMLID_1393_" class="st7" points="1731.8,591.8 1161.8,21.7 1161.8,18.9 1734.6,591.8 				"/>
				<polygon id="XMLID_1392_" class="st7" points="1674.7,591.8 1161.8,78.9 1161.8,76 1677.5,591.8 				"/>
				<polygon id="XMLID_1391_" class="st7" points="1617.5,591.8 1161.8,136 1161.8,133.2 1620.4,591.8 				"/>
				<polygon id="XMLID_1390_" class="st7" points="1560.4,591.8 1161.8,193.1 1161.8,190.3 1563.2,591.8 				"/>
				<polygon id="XMLID_1389_" class="st7" points="1503.3,591.8 1161.8,250.3 1161.8,247.5 1506.1,591.8 				"/>
				<polygon id="XMLID_1388_" class="st7" points="1446.1,591.8 1161.8,307.4 1161.8,304.6 1448.9,591.8 				"/>
				<polygon id="XMLID_1387_" class="st7" points="1389,591.8 1161.8,364.6 1161.8,361.7 1391.8,591.8 				"/>
				<polygon id="XMLID_1386_" class="st7" points="1331.8,591.8 1161.8,421.7 1161.8,418.9 1334.7,591.8 				"/>
				<polygon id="XMLID_1385_" class="st7" points="1274.7,591.8 1161.8,478.8 1161.8,476 1277.5,591.8 				"/>
				<polygon id="XMLID_1384_" class="st7" points="1217.6,591.8 1161.8,536 1161.8,533.2 1220.4,591.8 				"/>
				<polygon id="XMLID_1383_" class="st7" points="1161.8,591.8 1161.8,590.3 1163.2,591.8 				"/>
				<polygon id="XMLID_1382_" class="st7" points="1903.2,591.8 1161.8,-149.7 1161.8,-152.5 1906.1,591.8 				"/>
				<polygon id="XMLID_1381_" class="st7" points="1960.4,591.8 1161.8,-206.8 1161.8,-209.7 1963.2,591.8 				"/>
				<polygon id="XMLID_1380_" class="st7" points="2017.5,591.8 1161.8,-264 1161.8,-266.8 2020.3,591.8 				"/>
				<polygon id="XMLID_1379_" class="st7" points="2074.7,591.8 1161.8,-321.1 1161.8,-323.9 2077.5,591.8 				"/>
				<polygon id="XMLID_1378_" class="st7" points="2131.8,591.8 1161.8,-378.3 1161.8,-381.1 2134.6,591.8 				"/>
				<polygon id="XMLID_1377_" class="st7" points="2188.9,591.8 1161.8,-435.4 1161.8,-438.2 2191.8,591.8 				"/>
				<polygon id="XMLID_1376_" class="st7" points="2246.1,591.8 1161.8,-492.5 1161.8,-495.4 2248.9,591.8 				"/>
				<polygon id="XMLID_1375_" class="st7" points="2303.2,591.8 1161.8,-549.7 1161.8,-552.5 2306,591.8 				"/>
				<polygon id="XMLID_1374_" class="st7" points="1161.8,-608.2 1163.2,-608.2 2361.8,590.4 2361.8,591.8 2360.4,591.8 
					1161.8,-606.8 				"/>
				<polygon id="XMLID_1373_" class="st7" points="1220.3,-608.2 2361.8,533.2 2361.8,536 1217.5,-608.2 				"/>
				<polygon id="XMLID_1372_" class="st7" points="1277.5,-608.2 2361.8,476.1 2361.8,478.9 1274.6,-608.2 				"/>
				<polygon id="XMLID_1371_" class="st7" points="1334.6,-608.2 2361.8,418.9 2361.8,421.8 1331.8,-608.2 				"/>
				<polygon id="XMLID_1370_" class="st7" points="1391.7,-608.2 2361.8,361.8 2361.8,364.6 1388.9,-608.2 				"/>
				<polygon id="XMLID_1369_" class="st7" points="1448.9,-608.2 2361.8,304.7 2361.8,307.5 1446.1,-608.2 				"/>
				<polygon id="XMLID_1368_" class="st7" points="1506,-608.2 2361.8,247.5 2361.8,250.3 1503.2,-608.2 				"/>
				<polygon id="XMLID_1367_" class="st7" points="1563.2,-608.2 2361.8,190.4 2361.8,193.2 1560.3,-608.2 				"/>
				<polygon id="XMLID_1366_" class="st7" points="1620.3,-608.2 2361.8,133.2 2361.8,136.1 1617.5,-608.2 				"/>
				<polygon id="XMLID_1365_" class="st7" points="1677.4,-608.2 2361.8,76.1 2361.8,78.9 1674.6,-608.2 				"/>
				<polygon id="XMLID_1364_" class="st7" points="1734.6,-608.2 2361.8,19 2361.8,21.8 1731.8,-608.2 				"/>
				<polygon id="XMLID_1363_" class="st7" points="1791.7,-608.2 2361.8,-38.2 2361.8,-35.4 1788.9,-608.2 				"/>
				<polygon id="XMLID_1362_" class="st7" points="1848.9,-608.2 2361.8,-95.3 2361.8,-92.5 1846,-608.2 				"/>
				<polygon id="XMLID_1361_" class="st7" points="1906,-608.2 2361.8,-152.5 2361.8,-149.6 1903.2,-608.2 				"/>
				<polygon id="XMLID_1360_" class="st7" points="1963.1,-608.2 2361.8,-209.6 2361.8,-206.8 1960.3,-608.2 				"/>
				<polygon id="XMLID_1359_" class="st7" points="2020.3,-608.2 2361.8,-266.7 2361.8,-263.9 2017.5,-608.2 				"/>
				<polygon id="XMLID_1358_" class="st7" points="2077.4,-608.2 2361.8,-323.9 2361.8,-321.1 2074.6,-608.2 				"/>
				<polygon id="XMLID_1357_" class="st7" points="2134.6,-608.2 2361.8,-381 2361.8,-378.2 2131.7,-608.2 				"/>
				<polygon id="XMLID_1356_" class="st7" points="2191.7,-608.2 2361.8,-438.2 2361.8,-435.3 2188.9,-608.2 				"/>
				<polygon id="XMLID_1355_" class="st7" points="2248.8,-608.2 2361.8,-495.3 2361.8,-492.5 2246,-608.2 				"/>
				<polygon id="XMLID_1354_" class="st7" points="2306,-608.2 2361.8,-552.4 2361.8,-549.6 2303.2,-608.2 				"/>
				<polygon id="XMLID_1353_" class="st7" points="2361.8,-608.2 2361.8,-606.8 2360.3,-608.2 				"/>
				<polygon id="XMLID_1352_" class="st7" points="1817.1,591.8 1161.8,-63.6 1161.8,-66.4 1819.9,591.8 				"/>
				<polygon id="XMLID_1351_" class="st7" points="1760,591.8 1161.8,-6.4 1161.8,-9.2 1762.8,591.8 				"/>
				<polygon id="XMLID_1350_" class="st7" points="1702.8,591.8 1161.8,50.7 1161.8,47.9 1705.6,591.8 				"/>
				<polygon id="XMLID_1349_" class="st7" points="1645.7,591.8 1161.8,107.9 1161.8,105 1648.5,591.8 				"/>
				<polygon id="XMLID_1348_" class="st7" points="1588.5,591.8 1161.8,165 1161.8,162.2 1591.4,591.8 				"/>
				<polygon id="XMLID_1347_" class="st7" points="1531.4,591.8 1161.8,222.1 1161.8,219.3 1534.2,591.8 				"/>
				<polygon id="XMLID_1346_" class="st7" points="1474.3,591.8 1161.8,279.3 1161.8,276.5 1477.1,591.8 				"/>
				<polygon id="XMLID_1345_" class="st7" points="1417.1,591.8 1161.8,336.4 1161.8,333.6 1419.9,591.8 				"/>
				<polygon id="XMLID_1344_" class="st7" points="1360,591.8 1161.8,393.6 1161.8,390.7 1362.8,591.8 				"/>
				<polygon id="XMLID_1343_" class="st7" points="1302.8,591.8 1161.8,450.7 1161.8,447.9 1305.7,591.8 				"/>
				<polygon id="XMLID_1342_" class="st7" points="1245.7,591.8 1161.8,507.8 1161.8,505 1248.5,591.8 				"/>
				<polygon id="XMLID_1341_" class="st7" points="1188.6,591.8 1161.8,565 1161.8,562.2 1191.4,591.8 				"/>
				<polygon id="XMLID_1340_" class="st7" points="1874.2,591.8 1161.8,-120.7 1161.8,-123.5 1877.1,591.8 				"/>
				<polygon id="XMLID_1339_" class="st7" points="1931.4,591.8 1161.8,-177.8 1161.8,-180.7 1934.2,591.8 				"/>
				<polygon id="XMLID_1338_" class="st7" points="1988.5,591.8 1161.8,-235 1161.8,-237.8 1991.3,591.8 				"/>
				<polygon id="XMLID_1337_" class="st7" points="2045.7,591.8 1161.8,-292.1 1161.8,-294.9 2048.5,591.8 				"/>
				<polygon id="XMLID_1336_" class="st7" points="2102.8,591.8 1161.8,-349.3 1161.8,-352.1 2105.6,591.8 				"/>
				<polygon id="XMLID_1335_" class="st7" points="2159.9,591.8 1161.8,-406.4 1161.8,-409.2 2162.8,591.8 				"/>
				<polygon id="XMLID_1334_" class="st7" points="2217.1,591.8 1161.8,-463.5 1161.8,-466.4 2219.9,591.8 				"/>
				<polygon id="XMLID_1333_" class="st7" points="2274.2,591.8 1161.8,-520.7 1161.8,-523.5 2277,591.8 				"/>
				<polygon id="XMLID_1332_" class="st7" points="2331.4,591.8 1161.8,-577.8 1161.8,-580.6 2334.2,591.8 				"/>
				<polygon id="XMLID_1331_" class="st7" points="1191.3,-608.2 2361.8,562.2 2361.8,565 1188.5,-608.2 				"/>
				<polygon id="XMLID_1330_" class="st7" points="1248.5,-608.2 2361.8,505.1 2361.8,507.9 1245.6,-608.2 				"/>
				<polygon id="XMLID_1329_" class="st7" points="1305.6,-608.2 2361.8,447.9 2361.8,450.8 1302.8,-608.2 				"/>
				<polygon id="XMLID_1328_" class="st7" points="1362.7,-608.2 2361.8,390.8 2361.8,393.6 1359.9,-608.2 				"/>
				<polygon id="XMLID_1327_" class="st7" points="1419.9,-608.2 2361.8,333.7 2361.8,336.5 1417.1,-608.2 				"/>
				<polygon id="XMLID_1326_" class="st7" points="1477,-608.2 2361.8,276.5 2361.8,279.3 1474.2,-608.2 				"/>
				<polygon id="XMLID_1325_" class="st7" points="1534.2,-608.2 2361.8,219.4 2361.8,222.2 1531.3,-608.2 				"/>
				<polygon id="XMLID_1324_" class="st7" points="1591.3,-608.2 2361.8,162.2 2361.8,165.1 1588.5,-608.2 				"/>
				<polygon id="XMLID_1323_" class="st7" points="1648.4,-608.2 2361.8,105.1 2361.8,107.9 1645.6,-608.2 				"/>
				<polygon id="XMLID_1322_" class="st7" points="1705.6,-608.2 2361.8,48 2361.8,50.8 1702.8,-608.2 				"/>
				<polygon id="XMLID_1321_" class="st7" points="1762.7,-608.2 2361.8,-9.2 2361.8,-6.4 1759.9,-608.2 				"/>
				<polygon id="XMLID_1320_" class="st7" points="1819.9,-608.2 2361.8,-66.3 2361.8,-63.5 1817,-608.2 				"/>
				<polygon id="XMLID_1319_" class="st7" points="1877,-608.2 2361.8,-123.5 2361.8,-120.6 1874.2,-608.2 				"/>
				<polygon id="XMLID_1318_" class="st7" points="1934.1,-608.2 2361.8,-180.6 2361.8,-177.8 1931.3,-608.2 				"/>
				<polygon id="XMLID_1317_" class="st7" points="1991.3,-608.2 2361.8,-237.7 2361.8,-234.9 1988.5,-608.2 				"/>
				<polygon id="XMLID_1316_" class="st7" points="2048.4,-608.2 2361.8,-294.9 2361.8,-292.1 2045.6,-608.2 				"/>
				<polygon id="XMLID_1315_" class="st7" points="2105.6,-608.2 2361.8,-352 2361.8,-349.2 2102.7,-608.2 				"/>
				<polygon id="XMLID_1314_" class="st7" points="2162.7,-608.2 2361.8,-409.2 2361.8,-406.3 2159.9,-608.2 				"/>
				<polygon id="XMLID_1313_" class="st7" points="2219.8,-608.2 2361.8,-466.3 2361.8,-463.5 2217,-608.2 				"/>
				<polygon id="XMLID_1312_" class="st7" points="2277,-608.2 2361.8,-523.4 2361.8,-520.6 2274.2,-608.2 				"/>
				<polygon id="XMLID_1311_" class="st7" points="2334.1,-608.2 2361.8,-580.6 2361.8,-577.8 2331.3,-608.2 				"/>
			</g>
			<polygon id="XMLID_874_" class="st8" points="396.1,970.2 26.5,600.6 26.5,597.8 399,970.2 			"/>
			<polygon id="XMLID_876_" class="st8" points="424.3,969.5 54.7,599.9 54.7,597 427.1,969.5 			"/>
			<polygon id="XMLID_877_" class="st8" points="452.1,969.1 82.4,599.4 82.4,596.6 454.9,969.1 			"/>
			<polygon id="XMLID_878_" class="st8" points="479.3,967.2 109.7,597.6 109.7,594.8 482.1,967.2 			"/>
			<polygon id="XMLID_879_" class="st8" points="509.1,969.1 139.5,599.4 139.5,596.6 512,969.1 			"/>
			<polygon id="XMLID_880_" class="st8" points="538.6,969.5 169,599.9 169,597 541.4,969.5 			"/>
			<polygon id="XMLID_881_" class="st8" points="566.9,969.5 197.3,599.9 197.3,597 569.8,969.5 			"/>
			<polygon id="XMLID_882_" class="st8" points="595.9,969.5 226.3,599.9 226.3,597 598.7,969.5 			"/>
			<polygon id="XMLID_883_" class="st8" points="623.2,968.8 253.6,599.1 253.6,596.3 626,968.8 			"/>
			<polygon id="XMLID_884_" class="st8" points="651.9,968.4 282.3,598.7 282.3,595.9 654.7,968.4 			"/>
			<polygon id="XMLID_875_" class="st8" points="667.6,956.2 298,586.5 298,583.7 670.4,956.2 			"/>
			<polygon id="XMLID_885_" class="st8" points="694.2,953.6 324.5,584 324.5,581.2 697,953.6 			"/>
			<polygon id="XMLID_886_" class="st8" points="719.8,950.3 350.2,580.7 350.2,577.9 722.7,950.3 			"/>
			<polygon id="XMLID_887_" class="st8" points="748.2,950.3 378.5,580.7 378.5,577.9 751,950.3 			"/>
			<polygon id="XMLID_888_" class="st8" points="779,952.4 409.4,582.8 409.4,580 781.9,952.4 			"/>
			<polygon id="XMLID_889_" class="st8" points="807.3,952.4 437.7,582.8 437.7,580 810.1,952.4 			"/>
			<polygon id="XMLID_890_" class="st8" points="836.3,952.4 466.7,582.8 466.7,580 839.1,952.4 			"/>
			<polygon id="XMLID_891_" class="st8" points="864.7,952.4 495,582.8 495,580 867.5,952.4 			"/>
			<polygon id="XMLID_892_" class="st8" points="892.4,951.4 522.8,581.8 522.8,578.9 895.3,951.4 			"/>
			<polygon id="XMLID_929_" class="st8" points="143.8,975.4 -225.8,605.7 -225.8,602.9 146.6,975.4 			"/>
			<polygon id="XMLID_928_" class="st8" points="170.3,972.8 -199.3,603.2 -199.3,600.3 173.2,972.8 			"/>
			<polygon id="XMLID_927_" class="st8" points="196,969.5 -173.6,599.9 -173.6,597 198.8,969.5 			"/>
			<polygon id="XMLID_926_" class="st8" points="224.3,969.5 -145.3,599.9 -145.3,597 227.2,969.5 			"/>
			<polygon id="XMLID_925_" class="st8" points="255.2,971.6 -114.4,602 -114.4,599.2 258,971.6 			"/>
			<polygon id="XMLID_924_" class="st8" points="283.5,971.6 -86.2,602 -86.2,599.2 286.3,971.6 			"/>
			<polygon id="XMLID_923_" class="st8" points="312.5,971.6 -57.2,602 -57.2,599.2 315.3,971.6 			"/>
			<polygon id="XMLID_922_" class="st8" points="340.8,971.6 -28.8,602 -28.8,599.2 343.7,971.6 			"/>
			<polygon id="XMLID_921_" class="st8" points="368.6,970.6 -1,601 -1,598.1 371.4,970.6 			"/>
			<polygon id="XMLID_938_" class="st8" points="2.1,1063.3 -367.5,693.7 -367.5,690.9 4.9,1063.3 			"/>
			<polygon id="XMLID_937_" class="st8" points="28.6,1060.8 -341,691.2 -341,688.3 31.4,1060.8 			"/>
			<polygon id="XMLID_936_" class="st8" points="54.3,1057.5 -315.3,687.9 -315.3,685 57.1,1057.5 			"/>
			<polygon id="XMLID_935_" class="st8" points="82.6,1057.5 -287,687.9 -287,685 85.4,1057.5 			"/>
			<polygon id="XMLID_934_" class="st8" points="113.5,1059.6 -256.1,690 -256.1,687.1 116.3,1059.6 			"/>
			<polygon id="XMLID_933_" class="st8" points="141.8,1059.6 -227.9,690 -227.9,687.1 144.6,1059.6 			"/>
			<polygon id="XMLID_932_" class="st8" points="170.8,1059.6 -198.9,690 -198.9,687.1 173.6,1059.6 			"/>
			<polygon id="XMLID_931_" class="st8" points="199.1,1059.6 -170.5,690 -170.5,687.1 202,1059.6 			"/>
			<polygon id="XMLID_930_" class="st8" points="226.9,1058.6 -142.7,689 -142.7,686.1 229.7,1058.6 			"/>
			<polygon id="XMLID_893_" class="st8" points="920.2,951.4 550.6,581.8 550.6,578.9 923,951.4 			"/>
			<polygon id="XMLID_894_" class="st8" points="951.4,953.6 581.8,584 581.8,581.2 954.3,953.6 			"/>
			<polygon id="XMLID_895_" class="st8" points="965.3,939.2 595.6,569.5 595.6,566.7 968.1,939.2 			"/>
			<polygon id="XMLID_896_" class="st8" points="1019.8,965.2 650.2,595.5 650.2,592.7 1022.6,965.2 			"/>
			<polygon id="XMLID_897_" class="st8" points="1050.9,968.4 681.3,598.7 681.3,595.9 1053.7,968.4 			"/>
			<polygon id="XMLID_898_" class="st8" points="1079.8,968.4 710.2,598.7 710.2,595.9 1082.6,968.4 			"/>
			<polygon id="XMLID_899_" class="st8" points="1108,968.4 738.4,598.7 738.4,595.9 1110.9,968.4 			"/>
			<polygon id="XMLID_900_" class="st8" points="1135.8,967.1 766.1,597.5 766.1,594.7 1138.6,967.1 			"/>
			<polygon id="XMLID_901_" class="st8" points="1164,967.1 794.3,597.5 794.3,594.7 1166.8,967.1 			"/>
			<polygon id="XMLID_902_" class="st8" points="1192.9,967.1 823.3,597.5 823.3,594.7 1195.8,967.1 			"/>
			<polygon id="XMLID_903_" class="st8" points="1222.2,968.4 852.6,598.7 852.6,595.9 1225,968.4 			"/>
			<polygon id="XMLID_904_" class="st8" points="1251.3,968.4 881.7,598.7 881.7,595.9 1254.1,968.4 			"/>
			<polygon id="XMLID_905_" class="st8" points="1278.3,967.1 908.6,597.5 908.6,594.7 1281.1,967.1 			"/>
			<polygon id="XMLID_906_" class="st8" points="1307.1,967.1 937.5,597.5 937.5,594.7 1310,967.1 			"/>
			<polygon id="XMLID_907_" class="st8" points="1335.3,967.1 965.7,597.5 965.7,594.7 1338.2,967.1 			"/>
			<polygon id="XMLID_908_" class="st8" points="1362.3,965.2 992.7,595.5 992.7,592.7 1365.1,965.2 			"/>
			<polygon id="XMLID_909_" class="st8" points="1390.4,965.2 1020.8,595.5 1020.8,592.7 1393.2,965.2 			"/>
			<polygon id="XMLID_910_" class="st8" points="1419.7,965.2 1050.1,595.5 1050.1,592.7 1422.5,965.2 			"/>
			<polygon id="XMLID_911_" class="st8" points="1478.8,967.1 1109.2,597.5 1109.2,594.7 1481.6,967.1 			"/>
			<polygon id="XMLID_912_" class="st8" points="1450,967.1 1080.4,597.5 1080.4,594.7 1452.8,967.1 			"/>
			<polygon id="XMLID_913_" class="st8" points="1505,965.2 1135.3,595.5 1135.3,592.7 1507.8,965.2 			"/>
			<polygon id="XMLID_914_" class="st8" points="1532.7,964.2 1163.1,594.6 1163.1,591.8 1535.5,964.2 			"/>
			<polygon id="XMLID_915_" class="st8" points="1555.9,959.1 1186.2,589.4 1186.2,586.6 1558.7,959.1 			"/>
			<polygon id="XMLID_916_" class="st8" points="1582.9,957.3 1213.2,587.7 1213.2,584.9 1585.7,957.3 			"/>
		</g>
	</g>
</g>
<g id="Layer_2">
	<rect id="XMLID_3_" y="-0.1" class="st9" width="1353.6" height="939"/>
</g>
</svg>
